<?xml version="1.0" encoding="UTF-8" standalone="no" ?>
<!DOCTYPE svg PUBLIC "-//W3C//DTD SVG 1.1//EN" "http://www.w3.org/Graphics/SVG/1.1/DTD/svg11.dtd">
<svg xmlns="http://www.w3.org/2000/svg" xmlns:xlink="http://www.w3.org/1999/xlink" version="1.1" width="24" height="24" viewBox="0 0 24 24" xml:space="preserve">
<desc>Created with Fabric.js 4.6.0</desc>
<defs>
</defs>
<g transform="matrix(1 0 0 1 11.98 11.98)" id="a9ASzqN9NBje72ur0rSTd"  >
<path style="stroke: rgb(0,0,0); stroke-width: 0; stroke-dasharray: none; stroke-linecap: butt; stroke-dashoffset: 0; stroke-linejoin: miter; stroke-miterlimit: 4; fill: rgb(0,0,0); fill-rule: nonzero; opacity: 1;" vector-effect="non-scaling-stroke"  transform=" translate(-12, -12)" d="M 0 5.73344 C 0 2.56695 2.56695 0 5.73344 0 L 18.266550000000002 0 C 21.433040000000002 0 23.999990000000004 2.56695 23.999990000000004 5.73344 L 23.999990000000004 18.266550000000002 C 23.999990000000004 21.433040000000002 21.433040000000005 23.999990000000004 18.266550000000002 23.999990000000004 L 5.733440000000002 23.999990000000004 C 2.5669500000000016 23.999990000000004 1.7763568394002505e-15 21.433040000000005 1.7763568394002505e-15 18.266550000000002 z M 10.02394 11.02394 L 10.02394 7.02394 L 13.02394 7.02394 L 13.02394 7.02394 C 13.02394 7.02394 13.02394 7.02394 13.02394 7.02394 C 14.127939999999999 7.02394 15.02394 7.9199399999999995 15.02394 9.02394 C 15.02394 10.127939999999999 14.127939999999999 11.02394 13.02394 11.02394 C 13.02369 11.02394 13.02345 11.02394 13.0232 11.02394 z M 13.02394 3.02394 L 6.02394 3.02394 L 6.02394 21.02394 L 10.02394 21.02394 L 10.02394 15.02394 L 13.02394 15.02394 C 16.33765 15.02394 19.02394 12.33765 19.02394 9.02394 C 19.02394 5.703939999999999 16.33394 3.0239399999999996 13.02394 3.0239399999999996 z" stroke-linecap="round" />
</g>
</svg>